<svg width="575" height="152" viewBox="0 0 575 152" fill="none" xmlns="http://www.w3.org/2000/svg">
<g clip-path="url(#clip0_15_218)">
<path d="M81.0625 92.25C80.5625 97.8333 78.8958 102.833 76.0625 107.25C73.2292 111.667 69.6042 115.375 65.1875 118.375C60.8542 121.458 55.9375 123.792 50.4375 125.375C44.9375 126.958 39.2708 127.75 33.4375 127.75C31.2708 127.75 29.2292 127.583 27.3125 127.25C25.4792 127 23.8125 126.667 22.3125 126.25C20.8125 125.833 19.5208 125.417 18.4375 125C17.4375 124.667 16.7292 124.375 16.3125 124.125C15.5625 123.708 14.9375 123.167 14.4375 122.5C14.0208 121.917 13.7708 121.042 13.6875 119.875C13.6042 119.208 13.5625 118.667 13.5625 118.25C13.5625 117.917 13.6042 117.542 13.6875 117.125C13.7708 116.708 13.9375 116.125 14.1875 115.375C14.3542 114.708 14.6042 113.75 14.9375 112.5C15.1042 111.75 15.7292 109.375 16.8125 105.375C17.9792 101.458 19.3542 96.6667 20.9375 91C22.5208 85.25 24.2292 79.0417 26.0625 72.375C27.9792 65.7083 29.8125 59.25 31.5625 53C33.3125 46.75 34.8958 41.125 36.3125 36.125C37.7292 31.0417 38.7708 27.2917 39.4375 24.875C38.2708 25.7083 37.1042 26.5833 35.9375 27.5C34.8542 28.4167 33.7292 29.4167 32.5625 30.5C31.3125 31.6667 30.0625 32.0833 28.8125 31.75C27.6458 31.3333 26.8125 30.2917 26.3125 28.625C26.1458 27.7917 26.0208 26.9167 25.9375 26C25.8542 25.25 25.8542 24.4167 25.9375 23.5C26.1042 22.5 26.4375 21.5417 26.9375 20.625C29.6875 18.9583 32.3542 17.5417 34.9375 16.375C37.6042 15.2083 40.1458 14.1667 42.5625 13.25C43.0625 11.8333 43.6042 10.75 44.1875 10C44.8542 9.25 45.5208 8.75 46.1875 8.5C46.8542 8.25 47.5625 8.16667 48.3125 8.25C49.0625 8.33333 49.8542 8.45833 50.6875 8.625C52.5208 9.04167 53.7292 9.625 54.3125 10.375C55.4792 10.2083 56.6042 10.0833 57.6875 10C58.7708 9.91667 59.8958 9.875 61.0625 9.875C65.8958 9.875 70.1042 10.5 73.6875 11.75C77.2708 13 80.1875 14.7083 82.4375 16.875C84.7708 18.9583 86.4375 21.4167 87.4375 24.25C88.4375 27.0833 88.8125 30.0833 88.5625 33.25C88.3125 36 87.5625 38.875 86.3125 41.875C85.1458 44.7917 83.5625 47.7083 81.5625 50.625C79.5625 53.4583 77.2292 56.25 74.5625 59C71.8958 61.6667 68.9375 64.125 65.6875 66.375C68.2708 67.875 70.5625 69.625 72.5625 71.625C74.5625 73.625 76.2292 75.7917 77.5625 78.125C78.8958 80.4583 79.8542 82.8333 80.4375 85.25C81.0208 87.6667 81.2292 90 81.0625 92.25ZM39.6875 61.625C39.5208 62.4583 39.3125 63.2917 39.0625 64.125C38.8958 64.9583 38.6875 65.8333 38.4375 66.75C39.4375 65.6667 41.1042 64.6667 43.4375 63.75C45.8542 62.8333 48.1458 62.375 50.3125 62.375C51.4792 62.375 52.6042 62.4583 53.6875 62.625C54.7708 62.7083 55.8125 62.8333 56.8125 63C59.1458 61.5 61.3958 59.5833 63.5625 57.25C65.7292 54.8333 67.6042 52.2917 69.1875 49.625C70.8542 46.875 72.1875 44.0833 73.1875 41.25C74.2708 38.4167 74.9375 35.7917 75.1875 33.375C75.6875 27.625 74.6875 23.375 72.1875 20.625C69.7708 17.7917 66.3125 16.375 61.8125 16.375C58.8125 16.375 55.6875 16.9167 52.4375 18C51.7708 20.1667 50.9375 22.875 49.9375 26.125C48.9375 29.2917 47.8542 32.7917 46.6875 36.625C45.6042 40.4583 44.4375 44.5 43.1875 48.75C41.9375 53 40.7708 57.2917 39.6875 61.625ZM37.5625 69.875C36.3958 74.375 35.2292 79.25 34.0625 84.5C32.9792 89 31.8125 94.25 30.5625 100.25C29.3125 106.167 27.9792 112.5 26.5625 119.25C27.0625 119.667 27.7292 119.958 28.5625 120.125C29.3958 120.292 30.2292 120.458 31.0625 120.625C31.9792 120.792 32.9792 120.875 34.0625 120.875C37.8125 120.875 41.6042 120.083 45.4375 118.5C49.3542 117 52.9375 114.833 56.1875 112C59.4375 109.167 62.1458 105.75 64.3125 101.75C66.5625 97.6667 67.8958 93.125 68.3125 88.125C68.4792 85.875 68.3125 83.875 67.8125 82.125C67.3958 80.2917 66.7292 78.6667 65.8125 77.25C64.9792 75.75 63.9792 74.4583 62.8125 73.375C61.7292 72.2083 60.5625 71.2083 59.3125 70.375C55.4792 72.4583 51.2708 74.2083 46.6875 75.625C45.1875 76.0417 43.8958 76.125 42.8125 75.875C41.7292 75.5417 40.8125 75.0833 40.0625 74.5C39.3125 73.8333 38.7292 73.0833 38.3125 72.25C37.8958 71.4167 37.6458 70.625 37.5625 69.875ZM128.938 84.125C128.104 87.2917 126.979 90.25 125.562 93C124.146 95.75 122.438 98.125 120.438 100.125C118.521 102.125 116.312 103.667 113.812 104.75C111.396 105.917 108.729 106.5 105.812 106.5C102.396 106.5 99.6875 105.75 97.6875 104.25C95.7708 102.833 94.3125 101.042 93.3125 98.875C92.3958 96.7083 91.8542 94.3333 91.6875 91.75C91.4375 89.1667 91.3125 86.75 91.3125 84.5C91.3125 82.9167 91.5208 81.1667 91.9375 79.25C92.2708 77.3333 92.7708 75.375 93.4375 73.375C94.1042 71.375 94.9375 69.375 95.9375 67.375C97.0208 65.375 98.2708 63.5417 99.6875 61.875C100.188 60.4583 100.938 59.2083 101.938 58.125C103.021 57.0417 104.229 56.1667 105.562 55.5C106.979 54.75 108.479 54.2083 110.062 53.875C111.646 53.4583 113.188 53.25 114.688 53.25C114.938 53.25 115.146 53.2917 115.312 53.375C115.562 53.4583 115.812 53.5417 116.062 53.625C117.146 53.7083 118.479 54.125 120.062 54.875C121.729 55.625 123.312 56.75 124.812 58.25C126.396 59.75 127.729 61.6667 128.812 64C129.896 66.25 130.438 69 130.438 72.25C130.438 72.9167 130.396 73.75 130.312 74.75C130.229 75.6667 130.146 76.4583 130.062 77.125C131.979 76.375 133.979 75.4583 136.062 74.375C138.146 73.2917 140.146 72.1667 142.062 71C144.062 69.75 145.896 68.5 147.562 67.25C149.229 66 150.562 64.875 151.562 63.875C152.396 63.125 153.104 62.7083 153.688 62.625C154.271 62.5417 154.688 62.7083 154.938 63.125C155.188 63.5417 155.229 64.125 155.062 64.875C154.896 65.625 154.438 66.4583 153.688 67.375C153.271 67.875 152.188 68.875 150.438 70.375C148.771 71.875 146.771 73.5 144.438 75.25C142.104 77 139.562 78.7083 136.812 80.375C134.062 82.0417 131.438 83.2917 128.938 84.125ZM107.812 65.125C107.562 65.875 107.438 66.6667 107.438 67.5C107.438 68.8333 107.521 70.25 107.688 71.75C107.854 73.1667 108.271 74.4583 108.938 75.625C109.604 76.7917 110.646 77.7917 112.062 78.625C113.562 79.375 115.604 79.75 118.188 79.75C118.604 79.75 119.021 79.75 119.438 79.75C119.854 79.6667 120.271 79.5833 120.688 79.5C120.938 78.4167 121.146 77.4583 121.312 76.625C121.562 75.7083 121.688 74.9167 121.688 74.25C121.854 72.6667 121.854 71.0417 121.688 69.375C121.521 67.7083 121.188 66.2083 120.688 64.875C120.271 63.4583 119.688 62.3333 118.938 61.5C118.271 60.5833 117.438 60.125 116.438 60.125C114.854 60.125 113.312 60.5833 111.812 61.5C110.396 62.3333 109.062 63.5417 107.812 65.125ZM99.8125 87.125C99.8125 88.625 99.8958 90.125 100.062 91.625C100.229 93.0417 100.562 94.3333 101.062 95.5C101.562 96.5833 102.229 97.5 103.062 98.25C103.896 98.9167 104.979 99.25 106.312 99.25C107.812 99.25 109.188 98.9167 110.438 98.25C111.688 97.5 112.812 96.5833 113.812 95.5C114.812 94.3333 115.688 93.0417 116.438 91.625C117.271 90.125 117.979 88.5833 118.562 87C117.979 87.0833 117.396 87.1667 116.812 87.25C116.312 87.25 115.729 87.25 115.062 87.25C111.896 87.25 109.146 86.3333 106.812 84.5C104.562 82.5833 102.812 80.1667 101.562 77.25C101.062 79 100.646 80.7083 100.312 82.375C99.9792 84.0417 99.8125 85.625 99.8125 87.125ZM179.312 84.125C178.479 87.2917 177.354 90.25 175.938 93C174.521 95.75 172.812 98.125 170.812 100.125C168.896 102.125 166.688 103.667 164.188 104.75C161.771 105.917 159.104 106.5 156.188 106.5C152.771 106.5 150.062 105.75 148.062 104.25C146.146 102.833 144.688 101.042 143.688 98.875C142.771 96.7083 142.229 94.3333 142.062 91.75C141.812 89.1667 141.688 86.75 141.688 84.5C141.688 82.9167 141.896 81.1667 142.312 79.25C142.646 77.3333 143.146 75.375 143.812 73.375C144.479 71.375 145.312 69.375 146.312 67.375C147.396 65.375 148.646 63.5417 150.062 61.875C150.562 60.4583 151.312 59.2083 152.312 58.125C153.396 57.0417 154.604 56.1667 155.938 55.5C157.354 54.75 158.854 54.2083 160.438 53.875C162.021 53.4583 163.562 53.25 165.062 53.25C165.312 53.25 165.521 53.2917 165.688 53.375C165.938 53.4583 166.188 53.5417 166.438 53.625C167.521 53.7083 168.854 54.125 170.438 54.875C172.104 55.625 173.688 56.75 175.188 58.25C176.771 59.75 178.104 61.6667 179.188 64C180.271 66.25 180.812 69 180.812 72.25C180.812 72.9167 180.771 73.75 180.688 74.75C180.604 75.6667 180.521 76.4583 180.438 77.125C182.354 76.375 184.354 75.4583 186.438 74.375C188.521 73.2917 190.521 72.1667 192.438 71C194.438 69.75 196.271 68.5 197.938 67.25C199.604 66 200.938 64.875 201.938 63.875C202.771 63.125 203.479 62.7083 204.062 62.625C204.646 62.5417 205.062 62.7083 205.312 63.125C205.562 63.5417 205.604 64.125 205.438 64.875C205.271 65.625 204.812 66.4583 204.062 67.375C203.646 67.875 202.562 68.875 200.812 70.375C199.146 71.875 197.146 73.5 194.812 75.25C192.479 77 189.938 78.7083 187.188 80.375C184.438 82.0417 181.812 83.2917 179.312 84.125ZM158.188 65.125C157.938 65.875 157.812 66.6667 157.812 67.5C157.812 68.8333 157.896 70.25 158.062 71.75C158.229 73.1667 158.646 74.4583 159.312 75.625C159.979 76.7917 161.021 77.7917 162.438 78.625C163.938 79.375 165.979 79.75 168.562 79.75C168.979 79.75 169.396 79.75 169.812 79.75C170.229 79.6667 170.646 79.5833 171.062 79.5C171.312 78.4167 171.521 77.4583 171.688 76.625C171.938 75.7083 172.062 74.9167 172.062 74.25C172.229 72.6667 172.229 71.0417 172.062 69.375C171.896 67.7083 171.562 66.2083 171.062 64.875C170.646 63.4583 170.062 62.3333 169.312 61.5C168.646 60.5833 167.812 60.125 166.812 60.125C165.229 60.125 163.688 60.5833 162.188 61.5C160.771 62.3333 159.438 63.5417 158.188 65.125ZM150.188 87.125C150.188 88.625 150.271 90.125 150.438 91.625C150.604 93.0417 150.938 94.3333 151.438 95.5C151.938 96.5833 152.604 97.5 153.438 98.25C154.271 98.9167 155.354 99.25 156.688 99.25C158.188 99.25 159.562 98.9167 160.812 98.25C162.062 97.5 163.188 96.5833 164.188 95.5C165.188 94.3333 166.062 93.0417 166.812 91.625C167.646 90.125 168.354 88.5833 168.938 87C168.354 87.0833 167.771 87.1667 167.188 87.25C166.688 87.25 166.104 87.25 165.438 87.25C162.271 87.25 159.521 86.3333 157.188 84.5C154.938 82.5833 153.188 80.1667 151.938 77.25C151.438 79 151.021 80.7083 150.688 82.375C150.354 84.0417 150.188 85.625 150.188 87.125ZM256.812 79.125C254.896 82.2917 252.688 85.5833 250.188 89C247.771 92.3333 245.188 95.4167 242.438 98.25C239.688 101 236.854 103.292 233.938 105.125C231.021 106.958 228.104 107.875 225.188 107.875C222.271 107.875 220.146 106.875 218.812 104.875C217.562 102.958 216.979 100.792 217.062 98.375C217.062 97.2917 217.146 96.3333 217.312 95.5C217.562 94.6667 217.812 93.9167 218.062 93.25C218.312 92.5833 218.562 91.9167 218.812 91.25C219.146 90.5 219.438 89.6667 219.688 88.75C220.021 87.6667 220.021 86.7083 219.688 85.875C219.438 84.9583 219.104 84.1667 218.688 83.5C217.938 84.3333 217.062 85.0833 216.062 85.75C215.146 86.3333 213.979 86.625 212.562 86.625C211.562 86.625 210.646 86.1667 209.812 85.25C208.979 84.25 208.562 83.0417 208.562 81.625C208.562 80.4583 208.812 79.5 209.312 78.75C209.896 78 210.521 77.4167 211.188 77C211.938 76.5833 212.688 76.2917 213.438 76.125C214.188 75.9583 214.812 75.875 215.312 75.875C215.562 75.875 216.062 75.9167 216.812 76C217.646 76.0833 218.521 76.2083 219.438 76.375C222.438 73.9583 224.562 71.7917 225.812 69.875C227.146 67.875 227.271 66.0833 226.188 64.5C225.521 63.4167 224.688 62.875 223.688 62.875C222.688 62.7917 221.646 63.0417 220.562 63.625C219.479 64.125 218.396 64.7917 217.312 65.625C216.312 66.4583 215.396 67.25 214.562 68C212.896 69.6667 211.021 71.6667 208.938 74C206.938 76.25 205.271 78.125 203.938 79.625C203.354 82.125 202.771 84.75 202.188 87.5C201.688 89.9167 201.104 92.6667 200.438 95.75C199.854 98.75 199.229 101.875 198.562 105.125C198.062 105.375 197.521 105.542 196.938 105.625C196.438 105.792 195.979 105.917 195.562 106C195.062 106.083 194.562 106.125 194.062 106.125C193.396 106.125 192.771 106.083 192.188 106C191.604 106 191.146 105.792 190.812 105.375C190.396 105.042 190.188 104.458 190.188 103.625C190.104 102.792 190.312 101.625 190.812 100.125C191.479 97.9583 192.312 95.0833 193.312 91.5C194.312 87.8333 195.354 83.8333 196.438 79.5C197.521 75.1667 198.604 70.6667 199.688 66C200.854 61.25 201.938 56.75 202.938 52.5C203.938 48.1667 204.771 44.2917 205.438 40.875C206.188 37.375 206.729 34.625 207.062 32.625C207.312 30.4583 207.562 28.375 207.812 26.375C207.979 24.7083 208.062 23.0833 208.062 21.5C208.146 19.8333 208.062 18.5833 207.812 17.75C208.229 17.3333 208.812 16.9583 209.562 16.625C210.312 16.2917 211.146 16.0417 212.062 15.875C212.979 15.625 214.062 15.4167 215.312 15.25C216.729 15.0833 217.896 15.0417 218.812 15.125C219.812 15.2083 220.521 15.625 220.938 16.375C221.438 17.2083 221.521 18.625 221.188 20.625C220.938 22.5417 220.354 25.25 219.438 28.75C218.271 33.25 217.062 37.375 215.812 41.125C214.646 44.7917 213.479 48.25 212.312 51.5C211.229 54.75 210.146 57.9167 209.062 61C208.062 64 207.146 67.0833 206.312 70.25C207.979 67.8333 210.062 65.2917 212.562 62.625C215.062 59.875 217.896 57.625 221.062 55.875C224.396 54.125 227.146 53.25 229.312 53.25C231.979 53.25 233.896 54.1667 235.062 56C236.229 57.75 236.771 59.8333 236.688 62.25C236.604 64.1667 236.104 65.9583 235.188 67.625C234.354 69.2083 233.312 70.7083 232.062 72.125C230.812 73.4583 229.479 74.625 228.062 75.625C226.646 76.625 225.438 77.4583 224.438 78.125C225.604 78.7917 226.604 79.7083 227.438 80.875C228.354 81.9583 228.771 83.3333 228.688 85C228.604 87.25 228.146 89.25 227.312 91C226.562 92.6667 226.188 94.2083 226.188 95.625C226.271 96.7083 226.479 97.5 226.812 98C227.229 98.5 228.062 98.75 229.312 98.75C231.562 98.75 233.896 97.7917 236.312 95.875C238.812 93.9583 241.146 91.75 243.312 89.25C245.479 86.75 247.479 84.2917 249.312 81.875C251.146 79.375 252.562 77.5417 253.562 76.375C254.979 74.875 256.146 74.5 257.062 75.25C258.062 75.9167 257.979 77.2083 256.812 79.125ZM294.938 46.625C294.854 46.375 295.104 45.75 295.688 44.75C296.271 43.6667 296.896 42.375 297.562 40.875C298.312 39.2917 299.021 37.5417 299.688 35.625C300.438 33.625 300.938 31.5833 301.188 29.5C301.521 27.4167 301.521 25.3333 301.188 23.25C300.854 21.1667 299.979 19.1667 298.562 17.25C297.729 16.25 296.479 15.7083 294.812 15.625C293.229 15.4583 291.396 15.7083 289.312 16.375C287.312 16.9583 285.188 17.9167 282.938 19.25C280.771 20.5 278.771 22 276.938 23.75C275.104 25.4167 273.521 27.2917 272.188 29.375C270.938 31.4583 270.229 33.5833 270.062 35.75C269.896 37.5 269.938 39.125 270.188 40.625C270.521 42.125 270.938 43.5 271.438 44.75C271.938 46 272.479 47.1667 273.062 48.25C273.646 49.3333 274.188 50.2917 274.688 51.125C275.354 52.2917 276.396 53.5833 277.812 55C279.229 56.4167 280.771 58.0417 282.438 59.875C284.104 61.625 285.771 63.625 287.438 65.875C289.104 68.125 290.562 70.6667 291.812 73.5C293.062 76.3333 293.938 79.5 294.438 83C294.938 86.5 294.896 90.375 294.312 94.625C293.396 100.792 291.938 105.917 289.938 110C287.938 114.167 285.729 117.5 283.312 120C280.979 122.5 278.604 124.292 276.188 125.375C273.771 126.542 271.771 127.292 270.188 127.625C268.938 127.875 267.438 128.083 265.688 128.25C264.021 128.5 262.229 128.458 260.312 128.125C258.479 127.875 256.604 127.292 254.688 126.375C252.771 125.542 251.062 124.208 249.562 122.375C247.812 120.292 246.438 118.042 245.438 115.625C244.521 113.542 243.854 111.125 243.438 108.375C242.938 105.708 243.146 102.917 244.062 100C244.729 99.25 245.438 98.5833 246.188 98C246.938 97.4167 247.688 96.9167 248.438 96.5C249.271 96 250.146 95.5417 251.062 95.125C252.146 94.7917 253.229 94.5 254.312 94.25C255.229 94.0833 256.188 94 257.188 94C258.271 93.9167 259.271 94.0417 260.188 94.375C258.938 95.7917 258.062 97.125 257.562 98.375C257.229 99.0417 256.979 99.625 256.812 100.125C256.479 101.708 256.354 103.583 256.438 105.75C256.604 108 257.062 110.125 257.812 112.125C258.646 114.208 259.812 115.958 261.312 117.375C262.812 118.875 264.812 119.667 267.312 119.75C273.396 119.917 278.562 115.167 282.812 105.5C284.229 102.5 284.938 99.4583 284.938 96.375C285.021 93.2917 284.646 90.3333 283.812 87.5C283.062 84.6667 282.021 82.0417 280.688 79.625C279.438 77.125 278.146 75 276.812 73.25C275.479 71.5 273.854 69.625 271.938 67.625C270.104 65.5417 268.271 63.2917 266.438 60.875C264.604 58.4583 262.938 55.8333 261.438 53C260.021 50.1667 259.062 47.0833 258.562 43.75C257.896 39.0833 258.312 34.8333 259.812 31C261.396 27.0833 263.479 23.6667 266.062 20.75C268.729 17.8333 271.604 15.4583 274.688 13.625C277.854 11.7917 280.646 10.625 283.062 10.125C296.479 7.45833 305.271 9.70833 309.438 16.875C311.188 19.625 312.146 22.5417 312.312 25.625C312.479 28.7083 312.271 31.5833 311.688 34.25C311.188 36.8333 310.521 39.0417 309.688 40.875C308.938 42.625 308.438 43.5833 308.188 43.75C307.688 44.25 306.896 44.7917 305.812 45.375C304.729 45.9583 302.979 46.5 300.562 47C299.896 47.1667 299.229 47.25 298.562 47.25C297.979 47.25 297.354 47.2083 296.688 47.125C296.021 47.0417 295.438 46.875 294.938 46.625ZM355.938 72.375C356.271 71.875 356.688 71.5833 357.188 71.5C357.771 71.3333 358.229 71.375 358.562 71.625C358.896 71.875 359.062 72.2917 359.062 72.875C359.146 73.4583 358.938 74.25 358.438 75.25C356.771 78.4167 354.562 81.8333 351.812 85.5C349.146 89.1667 346.312 92.625 343.312 95.875C340.312 99.0417 337.396 101.667 334.562 103.75C331.729 105.833 329.354 106.875 327.438 106.875C324.688 106.875 322.396 106.333 320.562 105.25C318.729 104.167 317.271 102.833 316.188 101.25C315.188 99.6667 314.479 97.9583 314.062 96.125C313.646 94.2083 313.521 92.4583 313.688 90.875C313.771 89.5417 314.062 87.1667 314.562 83.75C315.062 80.25 315.729 76.25 316.562 71.75C317.396 67.1667 318.312 62.2917 319.312 57.125C320.396 51.875 321.521 46.8333 322.688 42C321.271 42.1667 319.854 42.3333 318.438 42.5C317.021 42.6667 315.729 42.75 314.562 42.75C311.896 42.75 309.396 42.4583 307.062 41.875C304.646 41.2083 302.854 40.5833 301.688 40C301.021 39.6667 300.729 39.2083 300.812 38.625C300.896 37.9583 301.146 37.3333 301.562 36.75C301.979 36.0833 302.521 35.5417 303.188 35.125C303.771 34.625 304.312 34.375 304.812 34.375C306.396 34.5417 308.104 34.7083 309.938 34.875C311.771 34.9583 313.771 34.9583 315.938 34.875C317.521 34.7917 319.021 34.6667 320.438 34.5C321.938 34.3333 323.396 34.125 324.812 33.875C325.896 29.875 326.938 26.4167 327.938 23.5C329.021 20.5 329.979 18.4167 330.812 17.25C331.062 16.8333 331.604 16.5 332.438 16.25C333.354 15.9167 334.312 15.7083 335.312 15.625C336.312 15.4583 337.271 15.4583 338.188 15.625C339.104 15.7083 339.771 16 340.188 16.5C340.604 17.1667 340.771 18.875 340.688 21.625C340.604 24.375 340.146 27.875 339.312 32.125C342.812 32.125 345.896 32.3333 348.562 32.75C351.312 33.0833 353.646 33.5 355.562 34C357.479 34.4167 359.021 34.875 360.188 35.375C361.354 35.7917 362.229 36.0833 362.812 36.25C363.396 36.4167 363.688 36.8333 363.688 37.5C363.771 38.1667 363.646 38.875 363.312 39.625C363.062 40.2917 362.604 40.875 361.938 41.375C361.271 41.875 360.521 42.0417 359.688 41.875C358.854 41.7917 357.896 41.625 356.812 41.375C355.812 41.125 354.562 40.9167 353.062 40.75C351.646 40.5833 349.938 40.4167 347.938 40.25C345.938 40.0833 343.604 40 340.938 40C340.438 40 339.854 40.0417 339.188 40.125C338.604 40.125 337.979 40.125 337.312 40.125C336.979 41.4583 336.646 42.7917 336.312 44.125C336.062 45.375 335.688 46.7083 335.188 48.125C334.104 51.4583 332.854 55.0833 331.438 59C330.188 62.4167 328.688 66.3333 326.938 70.75C325.188 75.1667 323.229 79.875 321.062 84.875C320.562 88.4583 320.604 91.2083 321.188 93.125C321.854 94.9583 322.646 96.2917 323.562 97.125C324.646 98.0417 325.979 98.5417 327.562 98.625C328.812 98.7917 330.312 98.375 332.062 97.375C333.896 96.2917 335.771 94.875 337.688 93.125C339.604 91.375 341.521 89.4583 343.438 87.375C345.438 85.2917 347.271 83.25 348.938 81.25C350.604 79.25 352.062 77.4583 353.312 75.875C354.562 74.2083 355.438 73.0417 355.938 72.375ZM405.062 78C402.562 81.6667 399.729 85.25 396.562 88.75C393.396 92.1667 390.021 95.25 386.438 98C382.938 100.667 379.312 102.833 375.562 104.5C371.896 106.167 368.312 107 364.812 107C362.979 107 360.979 106.542 358.812 105.625C356.729 104.792 354.812 103.458 353.062 101.625C351.312 99.7917 349.896 97.4167 348.812 94.5C347.812 91.5833 347.521 88.0417 347.938 83.875C348.271 80.4583 349.312 76.875 351.062 73.125C352.896 69.2917 355.104 65.7917 357.688 62.625C360.354 59.4583 363.312 56.8333 366.562 54.75C369.896 52.6667 373.229 51.625 376.562 51.625C379.729 51.625 382.021 52.4167 383.438 54C384.854 55.5833 385.479 57.5417 385.312 59.875C385.062 62.4583 384.312 64.8333 383.062 67C381.896 69.1667 380.479 71.125 378.812 72.875C377.146 74.625 375.354 76.2083 373.438 77.625C371.604 79.0417 369.854 80.3333 368.188 81.5C366.354 82.75 364.604 83.9583 362.938 85.125C361.271 86.2083 359.812 87.2083 358.562 88.125C358.646 90.2083 359.021 91.9583 359.688 93.375C360.354 94.7917 361.188 95.9583 362.188 96.875C363.188 97.7083 364.312 98.3333 365.562 98.75C366.896 99.0833 368.229 99.25 369.562 99.25C372.396 99.25 375.354 98.375 378.438 96.625C381.521 94.7917 384.521 92.625 387.438 90.125C390.438 87.5417 393.188 84.875 395.688 82.125C398.271 79.375 400.396 77 402.062 75C402.646 74.3333 403.229 73.9583 403.812 73.875C404.479 73.7083 404.979 73.7917 405.312 74.125C405.729 74.375 405.938 74.875 405.938 75.625C405.938 76.2917 405.646 77.0833 405.062 78ZM373.062 58.75C372.062 58.75 370.854 59.25 369.438 60.25C368.104 61.25 366.771 62.7083 365.438 64.625C364.104 66.4583 362.854 68.75 361.688 71.5C360.521 74.1667 359.646 77.25 359.062 80.75C360.062 80 361.146 79.25 362.312 78.5C363.479 77.6667 364.646 76.7917 365.812 75.875C369.396 73.125 371.896 70.7083 373.312 68.625C374.729 66.5417 375.521 64.75 375.688 63.25C375.854 61.6667 375.688 60.5417 375.188 59.875C374.688 59.125 373.979 58.75 373.062 58.75ZM394.188 102C397.854 86.5833 400.771 74.2083 402.938 64.875C405.188 55.5417 406.896 48.4167 408.062 43.5C409.396 37.6667 410.312 33.625 410.812 31.375C411.062 29.7917 411.271 28.25 411.438 26.75C411.604 25.4167 411.688 24.0417 411.688 22.625C411.688 21.2083 411.562 19.9167 411.312 18.75C411.979 18.3333 412.688 18 413.438 17.75C414.271 17.5 415.062 17.2917 415.812 17.125C416.729 16.875 417.646 16.6667 418.562 16.5C419.479 16.3333 420.312 16.25 421.062 16.25C421.729 16.25 422.354 16.3333 422.938 16.5C423.521 16.5833 423.896 16.8333 424.062 17.25C424.562 17.6667 424.771 18.5 424.688 19.75C424.688 21 424.604 22.2917 424.438 23.625C424.104 25.2083 423.729 26.9167 423.312 28.75C422.312 32.3333 420.938 37.5 419.188 44.25C417.688 50 415.646 57.8333 413.062 67.75C410.562 77.6667 407.396 90.1667 403.562 105.25C403.146 105.667 402.646 105.958 402.062 106.125C401.479 106.292 400.938 106.375 400.438 106.375C399.854 106.375 399.229 106.333 398.562 106.25C397.979 106.083 397.396 105.833 396.812 105.5C396.312 105.167 395.812 104.708 395.312 104.125C394.812 103.625 394.438 102.917 394.188 102ZM422.188 102C425.854 86.5833 428.771 74.2083 430.938 64.875C433.188 55.5417 434.896 48.4167 436.062 43.5C437.396 37.6667 438.312 33.625 438.812 31.375C439.062 29.7917 439.271 28.25 439.438 26.75C439.604 25.4167 439.688 24.0417 439.688 22.625C439.688 21.2083 439.562 19.9167 439.312 18.75C439.979 18.3333 440.688 18 441.438 17.75C442.271 17.5 443.062 17.2917 443.812 17.125C444.729 16.875 445.646 16.6667 446.562 16.5C447.479 16.3333 448.312 16.25 449.062 16.25C449.729 16.25 450.354 16.3333 450.938 16.5C451.521 16.5833 451.896 16.8333 452.062 17.25C452.562 17.6667 452.771 18.5 452.688 19.75C452.688 21 452.604 22.2917 452.438 23.625C452.104 25.2083 451.729 26.9167 451.312 28.75C450.312 32.3333 448.938 37.5 447.188 44.25C445.688 50 443.646 57.8333 441.062 67.75C438.562 77.6667 435.396 90.1667 431.562 105.25C431.146 105.667 430.646 105.958 430.062 106.125C429.479 106.292 428.938 106.375 428.438 106.375C427.854 106.375 427.229 106.333 426.562 106.25C425.979 106.083 425.396 105.833 424.812 105.5C424.312 105.167 423.812 104.708 423.312 104.125C422.812 103.625 422.438 102.917 422.188 102ZM516.188 79.125C515.021 80.7917 513.521 82.875 511.688 85.375C509.854 87.7917 507.938 90.25 505.938 92.75C504.021 95.1667 502.104 97.4167 500.188 99.5C498.354 101.5 496.812 102.917 495.562 103.75C494.729 104.25 493.771 104.667 492.688 105C491.604 105.333 490.479 105.542 489.312 105.625C488.229 105.708 487.188 105.625 486.188 105.375C485.188 105.208 484.312 104.875 483.562 104.375C482.812 103.792 482.188 102.958 481.688 101.875C481.271 100.958 480.854 99.75 480.438 98.25C480.104 96.75 479.979 94.875 480.062 92.625C478.062 95.9583 475.854 98.5417 473.438 100.375C471.021 102.125 468.729 103.417 466.562 104.25C464.062 105.167 461.562 105.708 459.062 105.875C457.896 105.875 456.646 105.458 455.312 104.625C453.979 103.875 452.854 102.667 451.938 101C451.021 99.25 450.438 97.0417 450.188 94.375C449.938 91.625 450.271 88.375 451.188 84.625C452.354 79.5417 454.188 74.9167 456.688 70.75C459.271 66.5833 462.062 63.0417 465.062 60.125C468.062 57.125 471.021 54.875 473.938 53.375C476.854 51.875 479.271 51.2083 481.188 51.375C483.438 51.7917 485.271 52.4583 486.688 53.375C487.854 54.2083 488.604 55.4583 488.938 57.125C489.354 58.7083 488.688 60.8333 486.938 63.5C488.104 63.25 489.062 63.0833 489.812 63C490.646 62.9167 491.271 62.875 491.688 62.875C492.188 62.875 492.521 62.9167 492.688 63C492.771 63.1667 492.812 63.5417 492.812 64.125C492.812 64.625 492.688 65.5833 492.438 67C492.188 68.4167 491.812 70.3333 491.312 72.75C490.812 75.1667 490.146 78.2917 489.312 82.125C489.146 82.875 488.979 83.5833 488.812 84.25C488.729 84.8333 488.604 85.4583 488.438 86.125C488.354 86.7083 488.229 87.4167 488.062 88.25C487.896 89.0833 487.688 90.125 487.438 91.375C487.354 92.125 487.312 92.9583 487.312 93.875C487.396 94.7083 487.562 95.5 487.812 96.25C488.062 97 488.438 97.625 488.938 98.125C489.521 98.5417 490.312 98.75 491.312 98.75C492.146 98.75 493.229 98.25 494.562 97.25C495.896 96.1667 497.312 94.8333 498.812 93.25C500.312 91.5833 501.854 89.7917 503.438 87.875C505.104 85.875 506.646 83.9583 508.062 82.125C509.479 80.2917 510.729 78.6667 511.812 77.25C512.979 75.8333 513.812 74.7917 514.312 74.125C514.979 73.375 515.646 72.9583 516.312 72.875C516.979 72.7083 517.479 72.875 517.812 73.375C518.146 73.875 518.188 74.625 517.938 75.625C517.771 76.625 517.188 77.7917 516.188 79.125ZM479.562 84.625C479.979 82.9583 480.479 81 481.062 78.75C481.646 76.5 482.146 74.3333 482.562 72.25C482.979 70.1667 483.271 68.4583 483.438 67.125C483.688 65.7083 483.646 65.0417 483.312 65.125C482.896 65.2083 482.438 65.3333 481.938 65.5C481.521 65.6667 480.979 65.7917 480.312 65.875C479.646 65.9583 478.979 66.0833 478.312 66.25C478.979 64.9167 479.354 63.8333 479.438 63C479.604 62.0833 479.646 61.375 479.562 60.875C479.479 60.2917 479.312 59.8333 479.062 59.5C478.146 58.75 476.521 59.375 474.188 61.375C471.938 63.2917 469.312 66.875 466.312 72.125C465.062 74.2917 464.062 76.625 463.312 79.125C462.562 81.5417 462.021 83.8333 461.688 86C461.438 88.1667 461.396 90.0833 461.562 91.75C461.729 93.3333 462.062 94.375 462.562 94.875C463.479 95.7917 464.521 96.25 465.688 96.25C466.854 96.1667 468.021 95.8333 469.188 95.25C470.438 94.5833 471.646 93.75 472.812 92.75C474.062 91.75 475.146 90.7083 476.062 89.625C477.062 88.5417 477.854 87.5417 478.438 86.625C479.104 85.7083 479.479 85.0417 479.562 84.625ZM503.062 103.375C502.479 104.292 501.854 104.875 501.188 105.125C500.438 105.458 499.812 105.5 499.312 105.25C498.729 105.083 498.354 104.667 498.188 104C498.021 103.333 498.188 102.5 498.688 101.5C498.938 101 499.521 99.875 500.438 98.125C501.271 96.375 502.312 94.2917 503.562 91.875C504.729 89.375 506.021 86.7083 507.438 83.875C508.854 80.9583 510.188 78.2083 511.438 75.625C512.771 73.0417 513.979 70.75 515.062 68.75C516.146 66.6667 516.938 65.1667 517.438 64.25C516.521 63.4167 515.896 62.8333 515.562 62.5C515.229 62.0833 514.979 61.25 514.812 60C514.646 58.9167 514.896 57.5 515.562 55.75C516.229 54 517.104 52.3333 518.188 50.75C519.271 49.0833 520.479 47.6667 521.812 46.5C523.146 45.3333 524.438 44.75 525.688 44.75C528.021 44.75 529.646 45.5 530.562 47C531.562 48.5 532.146 50.0417 532.312 51.625C532.479 52.7083 532.396 54.0833 532.062 55.75C531.729 57.4167 531.104 58.9167 530.188 60.25C530.438 60.4167 530.771 60.625 531.188 60.875C531.604 61.0417 532.271 61.125 533.188 61.125C534.521 61.125 535.438 61.0417 535.938 60.875C536.521 60.7083 537.396 60.625 538.562 60.625C539.979 60.625 541.146 61 542.062 61.75C542.979 62.4167 543.729 63.2917 544.312 64.375C544.896 65.375 545.312 66.5 545.562 67.75C545.896 68.9167 546.104 70 546.188 71C546.438 73.0833 545.896 75.25 544.562 77.5C543.229 79.75 541.604 82.2083 539.688 84.875C538.521 86.5417 537.354 88.4167 536.188 90.5C535.021 92.5833 534.521 94.4583 534.688 96.125C534.854 97.2083 535.146 98.0833 535.562 98.75C535.979 99.4167 537.146 99.75 539.062 99.75C540.479 99.75 542.021 99.25 543.688 98.25C545.438 97.1667 547.188 95.8333 548.938 94.25C550.771 92.5833 552.562 90.7917 554.312 88.875C556.062 86.875 557.688 84.9583 559.188 83.125C560.688 81.2083 561.938 79.5 562.938 78C564.021 76.5 564.812 75.4167 565.312 74.75C565.729 74.0833 566.271 73.625 566.938 73.375C567.604 73.125 568.188 73.125 568.688 73.375C569.188 73.625 569.479 74.125 569.562 74.875C569.729 75.625 569.438 76.625 568.688 77.875C568.188 78.7083 567.312 80.0417 566.062 81.875C564.896 83.7083 563.438 85.75 561.688 88C560.021 90.25 558.146 92.5833 556.062 95C553.979 97.3333 551.771 99.5 549.438 101.5C547.188 103.417 544.896 105 542.562 106.25C540.312 107.5 538.146 108.125 536.062 108.125C533.896 108.125 532.104 107.708 530.688 106.875C529.271 106.042 528.104 105.042 527.188 103.875C526.354 102.625 525.729 101.292 525.312 99.875C524.979 98.375 524.854 97 524.938 95.75C525.021 94.75 525.271 93.7083 525.688 92.625C526.188 91.4583 526.729 90.2917 527.312 89.125C527.979 87.875 528.646 86.6667 529.312 85.5C530.062 84.25 530.729 83.0417 531.312 81.875C532.729 79.4583 533.854 77.4167 534.688 75.75C535.604 74 536.062 72.5417 536.062 71.375C536.062 70.625 535.896 69.9583 535.562 69.375C535.229 68.7917 534.688 68.5 533.938 68.5C533.438 68.5 533.062 68.5417 532.812 68.625C532.646 68.625 532.438 68.625 532.188 68.625C532.021 68.625 531.729 68.6667 531.312 68.75C530.979 68.75 530.438 68.75 529.688 68.75C528.604 68.75 527.688 68.5833 526.938 68.25C526.188 67.9167 525.479 67.6667 524.812 67.5C524.479 68.0833 523.729 69.3333 522.562 71.25C521.396 73.1667 520.021 75.4167 518.438 78C516.938 80.5833 515.312 83.2917 513.562 86.125C511.896 88.9583 510.312 91.625 508.812 94.125C507.312 96.5417 506.062 98.625 505.062 100.375C503.979 102.042 503.312 103.042 503.062 103.375Z" fill="white"/>
</g>
<defs>
<clipPath id="clip0_15_218">
<rect width="575" height="152" fill="white"/>
</clipPath>
</defs>
</svg>
